<?xml version="1.0" encoding="utf-8"?>
<svg version="1.1" xmlns:xlink="http://www.w3.org/1999/xlink" width="180px" height="25px" xmlns="http://www.w3.org/2000/svg">
  <defs>
    <mask fill="white" id="clip27">
      <path d="M 0 20  L 0 5  C 0 2.19999999999999  2.2 0  5 0  L 92.7246376811594 0  L 104.31884057971 0  L 108.666666666667 0  L 121.710144927536 0  L 175 0  C 177.8 0  180 2.19999999999999  180 5  L 180 20  C 180 22.8  177.8 25  175 25  L 108.666666666667 25  L 105.768115942029 25  L 5 25  C 2.2 25  0 22.8  0 20  Z " fill-rule="evenodd" />
    </mask>
  </defs>
  <g transform="matrix(1 0 0 1 -8 -434 )">
    <path d="M 0 20  L 0 5  C 0 2.19999999999999  2.2 0  5 0  L 92.7246376811594 0  L 104.31884057971 0  L 108.666666666667 0  L 121.710144927536 0  L 175 0  C 177.8 0  180 2.19999999999999  180 5  L 180 20  C 180 22.8  177.8 25  175 25  L 108.666666666667 25  L 105.768115942029 25  L 5 25  C 2.2 25  0 22.8  0 20  Z " fill-rule="nonzero" fill="#5ccdde" stroke="none" transform="matrix(1 0 0 1 8 434 )" />
    <path d="M 0 20  L 0 5  C 0 2.19999999999999  2.2 0  5 0  L 92.7246376811594 0  L 104.31884057971 0  L 108.666666666667 0  L 121.710144927536 0  L 175 0  C 177.8 0  180 2.19999999999999  180 5  L 180 20  C 180 22.8  177.8 25  175 25  L 108.666666666667 25  L 105.768115942029 25  L 5 25  C 2.2 25  0 22.8  0 20  Z " stroke-width="2" stroke="#797979" fill="none" transform="matrix(1 0 0 1 8 434 )" mask="url(#clip27)" />
  </g>
</svg>