<?xml version="1.0" encoding="utf-8"?>
<svg version="1.1" xmlns:xlink="http://www.w3.org/1999/xlink" width="132px" height="25px" xmlns="http://www.w3.org/2000/svg">
  <defs>
    <mask fill="white" id="clip53">
      <path d="M 0 20  L 0 5  C 0 2.19999999999999  1.61333333333333 0  3.66666666666667 0  L 59.4000000000001 0  L 67.9980676328503 0  L 76.5004830917875 0  L 79.6888888888889 0  L 89.2541062801933 0  L 128.333333333333 0  C 130.386666666667 0  132 2.19999999999999  132 5  L 132 20  C 132 22.8  130.386666666667 25  128.333333333333 25  L 79.6888888888889 25  L 77.5632850241546 25  L 3.66666666666667 25  C 1.61333333333333 25  0 22.8  0 20  Z " fill-rule="evenodd" />
    </mask>
  </defs>
  <g transform="matrix(1 0 0 1 -4 -399 )">
    <path d="M 0 20  L 0 5  C 0 2.19999999999999  1.61333333333333 0  3.66666666666667 0  L 59.4000000000001 0  L 67.9980676328503 0  L 76.5004830917875 0  L 79.6888888888889 0  L 89.2541062801933 0  L 128.333333333333 0  C 130.386666666667 0  132 2.19999999999999  132 5  L 132 20  C 132 22.8  130.386666666667 25  128.333333333333 25  L 79.6888888888889 25  L 77.5632850241546 25  L 3.66666666666667 25  C 1.61333333333333 25  0 22.8  0 20  Z " fill-rule="nonzero" fill="#5ccdde" stroke="none" transform="matrix(1 0 0 1 4 399 )" />
    <path d="M 0 20  L 0 5  C 0 2.19999999999999  1.61333333333333 0  3.66666666666667 0  L 59.4000000000001 0  L 67.9980676328503 0  L 76.5004830917875 0  L 79.6888888888889 0  L 89.2541062801933 0  L 128.333333333333 0  C 130.386666666667 0  132 2.19999999999999  132 5  L 132 20  C 132 22.8  130.386666666667 25  128.333333333333 25  L 79.6888888888889 25  L 77.5632850241546 25  L 3.66666666666667 25  C 1.61333333333333 25  0 22.8  0 20  Z " stroke-width="2" stroke="#797979" fill="none" transform="matrix(1 0 0 1 4 399 )" mask="url(#clip53)" />
  </g>
</svg>